Coordinates
version=1
nRows=8
nColumns=63
inDegrees=yes

Units are S.I. units (second, meters, Newtons, ...)
If the header above contains a line with 'inDegrees', this indicates whether rotational values are in degrees (yes) or radians (no).

endheader
time	pelvis_tilt	pelvis_list	pelvis_rotation	pelvis_tx	pelvis_ty	pelvis_tz	hip_flexion_r	hip_adduction_r	hip_rotation_r	knee_angle_r	knee_angle_r_beta	ankle_angle_r	subtalar_angle_r	mtp_angle_r	hip_flexion_l	hip_adduction_l	hip_rotation_l	knee_angle_l	knee_angle_l_beta	ankle_angle_l	subtalar_angle_l	mtp_angle_l	L5_S1_Flex_Ext	L5_S1_Lat_Bending	L5_S1_axial_rotation	L4_L5_Flex_Ext	L4_L5_Lat_Bending	L4_L5_axial_rotation	L3_L4_Flex_Ext	L3_L4_Lat_Bending	L3_L4_axial_rotation	L2_L3_Flex_Ext	L2_L3_Lat_Bending	L2_L3_axial_rotation	L1_L2_Flex_Ext	L1_L2_Lat_Bending	L1_L2_axial_rotation	L1_T12_Flex_Ext	L1_T12_Lat_Bending	L1_T12_axial_rotation	Abs_r3	Abs_r2	Abs_r1	Abs_t1	Abs_t2	neck_flexion	neck_bending	neck_rotation	arm_flex_r	arm_add_r	arm_rot_r	elbow_flex_r	pro_sup_r	wrist_flex_r	wrist_dev_r	arm_flex_l	arm_add_l	arm_rot_l	elbow_flex_l	pro_sup_l	wrist_flex_l	wrist_dev_l
2.932203	-13.597619	7.315652	92.809133	0.209069	1.118836	0.508498	-3.577340	-11.643898	-6.014332	7.731124	0.134934	18.942766	10.553037	0.000000	-4.818089	9.967031	-15.543809	5.630883	0.098277	2.158740	14.617774	0.000000	-1.394068	-1.644684	-6.271342	-2.588924	-2.187429	-6.663301	-2.290315	-3.998884	-6.663301	-1.593280	-3.998884	-5.487425	-1.294532	-3.353839	-5.095466	-0.796571	-2.547615	-4.703507	-9.957689	-18.604991	-34.879325	0.000000	0.000000	0.738067	-5.627488	43.458122	80.085014	49.425174	172.553000	0.039033	0.597164	-69.921808	-24.662232	-19.226386	-23.744694	-7.984262	64.956824	89.249592	-17.361889	-8.615148
2.949153	-13.482199	7.531637	92.853398	0.208140	1.118944	0.508079	-3.858603	-11.554873	-6.228998	7.651166	0.133538	18.930833	10.762635	0.000000	-5.143071	9.907004	-15.290546	5.483663	0.095708	2.277603	14.469045	0.000000	-1.402745	-1.614704	-6.321477	-2.605038	-2.147557	-6.716570	-2.304570	-3.925993	-6.716570	-1.603197	-3.925993	-5.531293	-1.302589	-3.292705	-5.136200	-0.801529	-2.501177	-4.741108	-10.019668	-18.265860	-35.158160	0.000000	0.000000	0.672771	-5.994929	43.566518	80.982837	49.408226	172.397525	0.038663	0.610951	-69.922127	-24.673958	-19.332445	-23.478562	-8.187210	64.988450	89.263507	-17.369963	-8.753842
2.966102	-13.314988	7.722178	92.918245	0.207001	1.119066	0.507595	-4.132857	-11.419290	-6.430922	7.563956	0.132016	18.884299	10.903590	0.000000	-5.445271	9.803847	-15.009485	5.327693	0.092986	2.450474	14.314724	0.000000	-1.409811	-1.575782	-6.371404	-2.618161	-2.095790	-6.769617	-2.316179	-3.831357	-6.769617	-1.611273	-3.831357	-5.574979	-1.309151	-3.213335	-5.176766	-0.805566	-2.440887	-4.778553	-10.070141	-17.825564	-35.435840	0.000000	0.000000	0.601630	-6.364863	43.678907	82.018172	49.328169	172.076998	0.038348	0.623102	-69.922031	-24.685760	-19.388693	-23.182771	-8.303480	64.963275	89.268017	-17.397790	-8.913291
2.983051	-13.133176	7.882929	93.025035	0.205702	1.119211	0.507070	-4.400919	-11.271881	-6.658895	7.471052	0.130394	18.825143	11.018574	0.000000	-5.720291	9.689120	-14.669406	5.163479	0.090120	2.658611	14.128659	0.000000	-1.414948	-1.532987	-6.423023	-2.627699	-2.038873	-6.824462	-2.324618	-3.727304	-6.824462	-1.617144	-3.727304	-5.620145	-1.313920	-3.126067	-5.218706	-0.808501	-2.374597	-4.817267	-10.106830	-17.341455	-35.722927	0.000000	0.000000	0.559901	-6.729579	43.797156	83.205368	49.193614	171.496362	0.038116	0.637616	-69.921610	-24.697200	-19.414321	-22.871729	-8.403233	64.923917	89.264797	-17.253533	-8.951489
3.000000	-12.921731	8.020078	93.146506	0.204268	1.119366	0.506501	-4.658271	-11.099432	-6.882257	7.375350	0.128724	18.748257	11.098714	0.000000	-5.970903	9.550181	-14.316880	4.995333	0.087185	2.920298	13.949891	0.000000	-1.420318	-1.484875	-6.471211	-2.637672	-1.974884	-6.875662	-2.333440	-3.610325	-6.875662	-1.623281	-3.610325	-5.662310	-1.318907	-3.027957	-5.257859	-0.811570	-2.300071	-4.853408	-10.145189	-16.797203	-35.990934	0.000000	0.000000	0.550735	-7.057011	43.901946	84.559184	49.004677	170.720846	0.037919	0.647909	-69.921001	-24.708466	-19.408036	-22.541968	-8.456912	64.876521	89.252207	-17.069585	-8.958039
3.016949	-12.715508	8.138536	93.313192	0.202748	1.119555	0.505909	-4.916942	-10.928439	-7.138903	7.277155	0.127010	18.665956	11.155350	0.000000	-6.202510	9.412462	-13.895671	4.828127	0.084267	3.194677	13.734687	0.000000	-1.425907	-1.436447	-6.527486	-2.648051	-1.910474	-6.935454	-2.342622	-3.492576	-6.935454	-1.629669	-3.492576	-5.711550	-1.324097	-2.929202	-5.303582	-0.814763	-2.225056	-4.895614	-10.185108	-16.249371	-36.303918	0.000000	0.000000	0.595489	-7.355830	44.005835	86.046149	48.812676	169.695430	0.037737	0.656539	-69.920431	-24.715762	-19.414369	-22.199209	-8.563024	64.863227	89.231771	-16.686581	-8.809630
3.033898	-12.518966	8.249075	93.507002	0.201212	1.119773	0.505363	-5.175669	-10.762633	-7.407170	7.180010	0.125315	18.576172	11.194735	0.000000	-6.418477	9.278628	-13.425372	4.669430	0.081497	3.464880	13.483737	0.000000	-1.432744	-1.389699	-6.594457	-2.660748	-1.848300	-7.006611	-2.353854	-3.378914	-7.006611	-1.637483	-3.378914	-5.770150	-1.330446	-2.833874	-5.357996	-0.818670	-2.152644	-4.945843	-10.233944	-15.720552	-36.676391	0.000000	0.000000	0.690700	-7.635820	44.105161	87.611817	48.641979	168.488781	0.037531	0.659215	-69.920018	-24.723283	-19.461189	-21.837423	-8.775551	64.912317	89.204418	-16.156864	-8.531341
3.050847	-12.329653	8.386838	93.685997	0.199791	1.120062	0.504972	-5.451964	-10.598019	-7.661419	7.082494	0.123613	18.466332	11.233657	0.000000	-6.644206	9.144188	-12.948163	4.528731	0.079041	3.722858	13.204498	0.000000	-1.442485	-1.348454	-6.678052	-2.678838	-1.793444	-7.095430	-2.369858	-3.278631	-7.095430	-1.648616	-3.278631	-5.843295	-1.339491	-2.749767	-5.425917	-0.824236	-2.088755	-5.008539	-10.303524	-15.253980	-37.141321	0.000000	0.000000	0.825801	-7.902763	44.195115	89.153378	48.530033	167.215648	0.037266	0.656292	-69.919945	-24.729594	-19.594013	-21.446323	-9.173113	65.025521	89.172229	-15.605311	-8.173434
